<?xml version="1.0" standalone="no"?>
<!DOCTYPE svg PUBLIC "-//W3C//DTD SVG 20010904//EN"
 "http://www.w3.org/TR/2001/REC-SVG-20010904/DTD/svg10.dtd">
<svg version="1.0" xmlns="http://www.w3.org/2000/svg"
 width="50.000000pt" height="50.000000pt" viewBox="0 0 50.000000 50.000000"
 preserveAspectRatio="xMidYMid meet">

<g transform="translate(0.000000,50.000000) scale(0.100000,-0.100000)"
fill="#fff" stroke="none">
<path d="M62 437 c-21 -22 -22 -33 -22 -188 0 -221 -12 -209 211 -209 221 0
209 -12 209 211 0 221 12 209 -211 209 -160 0 -166 -1 -187 -23z m362 -13 c24
-23 24 -325 0 -348 -23 -24 -325 -24 -348 0 -24 23 -24 325 0 348 23 24 325
24 348 0z"/>
<path d="M176 305 c52 -74 54 -62 -20 -142 -19 -21 -25 -33 -16 -33 8 0 32 21
54 46 l41 46 33 -46 c30 -41 37 -46 73 -46 l39 0 -51 71 c-55 78 -55 71 5 137
21 22 25 32 15 32 -9 0 -30 -18 -48 -41 l-33 -40 -30 40 c-26 36 -35 41 -69
41 l-38 0 45 -65z m92 -52 c39 -54 65 -100 59 -102 -12 -4 -35 22 -107 127
-34 48 -46 72 -36 72 8 0 46 -44 84 -97z"/>
</g>
</svg>
